<svg xmlns="http://www.w3.org/2000/svg" width="5999mm" height="2500mm" viewBox="0 0 4126.122 6588.732">
  <g id="ro" transform="translate(-1483.386 -249.28)" style="isolation: isolate">
    <path id="Path_2" data-name="Path 2" d="M10572.3,2663.91c5.76,270.8-56,518.35-166.62,754.53-82,175.18-190.94,332.53-322.69,474.07q-242.111,260.09-558.06,422.87c-200.35,103.78-412.13,173-634.68,209.65-108,17.8-216.65,25.8-326.07,29.54-111.65,3.8-222.51-4.14-333-15.65-156.81-16.3-309.71-52.47-458.73-104.46-202.82-70.78-390.9-169.4-562.88-298.15-250.18-187.34-448-418.84-586-700.1-80.73-164.52-133.43-337.86-160.84-519-12.78-84.59-16.27-169.65-16.13-255.06.37-182.61,26.87-361.25,82.6-535.13,74.33-232,196.39-436.59,358.13-618,108.37-121.58,230.74-226.77,366.49-316.89,89.38-59.33,177.17-121.21,271.9-171.86,46.32-24.78,94.4-46.32,142.24-68.12,20.58-9.38,42.33-16.33,65.8-8.67,22.45,7.34,25.74,18.34,9.58,36-5.84,6.37-12.45,12-19,17.71-116.45,100.72-233.75,200.47-349.18,302.35-99.52,87.84-193.26,181.61-275.58,286.21-110.64,140.66-194,296.11-252.79,464.94-47.88,137.42-75,278.79-84.39,423.92-8.36,129.23,2.52,256.93,26.5,383.76a1660.752,1660.752,0,0,0,146,434.21c103.381,207.41,242.421,386.9,422.2,533.82,54.65,44.6,109.9,88.87,167.5,129.6,108.7,76.91,229.63,125.78,361,148.43,30.16,5.18,59.93,13.32,90.23,16.95,99.55,11.93,183.74-19.59,252-93.15,37.1-40,65-85.92,88.33-135,34.69-73.05,59.41-149.69,83.08-226.8,10.94-35.63,24.15-70.52,36-105.87,6.12-18.31,18.34-26.62,37.56-26.25,24.66.45,49.35.54,74,0,19.08-.45,30.28,7.37,37.85,25.54,24.18,57.94,40.14,118.52,59.33,178.07,21.48,66.68,45.63,132.27,79.88,193.64,22.5,40.34,48.64,78,82.29,110.1,66.75,63.66,145.61,91.58,237.6,79.74,120.41-15.51,236.46-46.18,345.14-101.54A1030.343,1030.343,0,0,0,9546.07,3921c79.56-60.66,156.61-124.35,228.07-194.48,116-113.87,210.81-243.78,287.43-387,69.82-130.48,122.52-267.62,155.68-411.9,31.16-135.61,46.6-272.81,42.69-412.36-6.15-220.62-60-429.13-152.87-628.44-74.47-159.87-175.46-301.26-296.93-428.62-96.29-101-201.06-192.7-307-283.21q-106.38-91-212.26-182.5c-7-6-13.92-12.61-19.3-20.07-8.73-12.07-5.9-20.55,7.79-27,11.88-5.59,24.15-6,37.08-3.43,43.71,8.53,83.45,27.12,122.54,47.39,116.82,60.52,226,133.26,334.55,207.24,83.82,57.15,164.77,117.78,238.62,187.66,154.31,146,282.78,311.21,379.81,500.85,76.56,149.7,125.06,308.1,155.54,472.76C10566.8,2462,10574.7,2566.71,10572.3,2663.91Z" transform="translate(-4963.21 -4)" fill="#fff"/>
    <path id="Path_3" data-name="Path 3" d="M7713.1,5589.75c8.16,2.18,16.47,4,24.49,6.58,24,7.82,48.5,14.62,71.8,24.23,76.82,31.78,129.15,87.45,158.2,165.38,22.91,61.42,31.24,125.26,31.5,190.26.45,112.65-.4,225.32.42,338,.29,37.9,3.09,75.89,6.29,113.67,2.81,33,14.89,63.39,31.58,91.9,2,3.35,3.69,6.8,6.66,12.3-5.89.83-10.09,1.87-14.25,1.9q-204.99.135-410,.32c-11.65,0-17.89-3.86-22.85-14.4-17.6-37.28-28.4-76.2-29.28-117.44q-2-96-2.69-191.94c-.45-80-.11-160-.11-240,0-35.43-2.61-70.47-12.85-104.74-15.64-52.47-49-87.36-100.65-105.31-33-11.45-67.07-18.42-101.74-19.36-65.28-1.78-130.62-1.36-196-1.78-2.58,0-5.13.73-10.15,1.53v791.94h-433V4679.57c4.91-.62,9.92-1.84,14.94-1.84,218,0,436-.65,654,.34,94.74.43,189,8.19,281.65,30.28,50.06,11.93,98.65,28,144.11,52.47,112.17,60.34,173,155.53,186,280.91a1179.1,1179.1,0,0,1,.279,235.589c-12.239,125.94-75,218.6-189.669,274-23.3,11.26-48.21,19.16-72.42,28.49-5.5,2.13-11.17,3.8-16.75,5.67C7712.76,5586.94,7712.93,5588.36,7713.1,5589.75Zm-568.72-118.2c3.49.59,6,1.39,8.54,1.39,64.63-.23,129.28.68,193.86-1.25,40.67-1.22,80.53-9.47,118.32-26,50.25-22.06,81.8-59.73,90.11-113.73,4.93-32,4.9-65,5.3-97.51.54-44.62,1.16-89.38-1.47-133.88-4.37-73.3-42-121.41-108.34-142.67-33.94-10.86-69-14.34-104.49-14.29-61.31.09-122.6,0-183.91.06-5.78,0-11.54.8-17.92,1.28Z" transform="translate(-4963.21 -4)" fill="#fff"/>
    <path id="Path_4" data-name="Path 4" d="M9584.22,5606.84q0,243,.11,485.89c.09,51.05-6,101.06-22,149.58-28.21,85.47-81.75,151.69-155.45,202.29-68.66,47.11-145.25,74.92-226.07,92-114.91,24.35-231.16,28.17-348,21.31-80.76-4.73-160.28-16.64-237.52-41.32-79.74-25.49-152.33-63.56-212.31-123.11-64.92-64.46-101-143-111.52-233.35a588.159,588.159,0,0,1-4-67.78q-.371-486.88-.25-973.76c0-50.37,6.18-99.72,21.83-147.62,26.07-79.94,74.6-143.64,141.9-193.38,65.9-48.73,140.34-78.3,219.46-97.29,96.52-23.16,194.68-29.56,293.61-28.63,92.27.88,183.57,9.3,273.09,32.63,79.43,20.69,153.64,52.55,218.13,104.51,84,67.69,132.12,155.43,144.82,262.35a620.962,620.962,0,0,1,4.079,71.74Q9584.541,5364.94,9584.22,5606.84Zm-883.36-.22q0,246.91.08,493.82a405.938,405.938,0,0,0,2.13,41.87c7,66.7,41.56,112.14,104.8,135.49,28.43,10.49,58,15,88,16.87,51.62,3.32,102.64.11,151.57-18.31,54.17-20.41,87.67-59.27,98.56-116.22,3.48-18.2,4.62-37.08,4.64-55.65q.39-497.82.2-995.61c0-6.66.06-13.32-.25-20-4.17-88.1-46.94-140.74-132.58-162.12-43.74-10.91-88.24-12.35-133-8.33-30.64,2.75-60.63,8.33-89,20.86-47.82,21.09-78.57,56.58-88.83,108a321.479,321.479,0,0,0-6,61.46c-.549,166.021-.318,331.931-.318,497.871Z" transform="translate(-4963.21 -4)" fill="#fff"/>
    <path id="Path_5" data-name="Path 5" d="M8729.83,1923.25c-5.9,9.3-10.43,15.59-14.09,22.37-9.49,17.57-18.2,35.6-28,53-9.39,16.63-17.32,20.23-36.32,16.78-24.89-4.57-49.69-9.64-74.43-14.89-58.57-12.41-116.54-7.56-174.42,4.82-16.24,3.49-32.88,5-49.32,7.71-15.93,2.61-26.85-3-33.85-17.88-8.81-18.65-18.57-36.88-28-55.25-3-5.81-6.2-11.48-10.91-20.13-4.36,10.49-7.91,18.17-10.83,26.08q-37.08,100.23-74,200.5c-1.39,3.74-2.95,7.42-4.62,11-20.89,45.58-47.45,62.51-97.43,60.49-21.26-.85-42.43-3.82-63.66-5.78-13.3-1.22-19.56-9.3-22.71-21.54-12.53-49-26.13-97.8-37.95-147-16.16-67.35-30.7-135.1-46.78-202.45-2.86-12-.34-19.53,7.83-28.23,60.15-64.15,119.76-128.81,179.52-193.32,4.08-4.4,7.88-9,11.87-13.53,20-22.3,26.56-47.39,21.57-77.55-11.11-67-21.65-134.19-29.45-201.66-11.39-98.76-16.67-197.91-2.49-297,9.75-68.08,28.94-134.05,48.22-199.87,30.21-103.15,67.2-203.64,119.73-297.83C8336,430.47,8407,340.5,8497.62,266.68c5.1-4.16,10.43-8.07,17.29-13.4,18.37,16,36.88,31.15,54.25,47.5,88.56,83.34,154.86,182.44,206.56,292,50.88,107.83,83.6,221.59,112.06,336.84,16.66,67.5,29.5,135.5,28.48,205.26-.59,40.59-3.31,81.18-6.52,121.66a2311.19,2311.19,0,0,1-38,273c-6.83,34,2,62.48,25.85,87.93,60.1,64.21,119.06,129.49,179,193.78,11.54,12.36,15.76,23.69,11.23,41-29,110.12-56.81,220.53-85.07,330.86a142.7,142.7,0,0,1-5.08,17.23c-3.65,9.24-9.83,15.93-20.55,16.5-27.86,1.45-55.78,4.37-83.62,3.66-32.49-.83-56-16.67-70.36-47.31-26.92-57.49-46.68-117.56-67-177.45-6-17.66-11.76-35.38-17.88-53C8736.41,1937.08,8733.66,1931.9,8729.83,1923.25ZM8519.07,1277c51.68.56,106.73-18.8,152.88-62.08,71.2-66.84,77.13-175.86,13.38-246.5-60.18-66.65-137.91-82.26-222.18-73.22-46.35,5-85.3,29.79-118.55,61.85-72,69.45-72.68,182-2.12,252.62C8388.17,1255.44,8443.81,1277,8519.07,1277Z" transform="translate(-4963.21 -4)" fill="#fff"/>
    <path id="Path_6" data-name="Path 6" d="M9877.18,4678.61h429.31c.65.71,1.1,1.22,1.56,1.7s1.13.94,1.24,1.5a43.574,43.574,0,0,1,1.14,7.86q0,917.819-.12,1835.629c0,1.9-.9,3.77-1.36,5.5-15.36,4.22-411.3,4.79-431.77.48Z" transform="translate(-4963.21 -4)" fill="#fff"/>
    <path id="Path_7" data-name="Path 7" d="M7894.77,3124.29c5.5,14,11.74,27.84,16.47,42.21,38.72,117.58,98.87,223.82,170.08,324.39a1415.669,1415.669,0,0,0,198,224.4c14.769,13.57,14.569,14.14,7.309,32.65-10.68,27.3-21.77,54.43-31.94,81.89-5.16,14-13.78,23.53-27.07,30.28-67.75,34.44-133.34,72.65-196.1,115.59-12.08,8.28-24.32,16.53-35.35,26.08-15.93,13.84-32.49,16.27-51.65,7.77-45.61-20.27-91.93-39-137.05-60.32-153.53-72.4-292.28-166.93-418.91-279.89-188.47-168.07-325.87-370-407.65-609.28-19.25-56.3-31.12-114.27-39.77-173-9-61.31-18.71-122.57-16.64-184.79q2.22-66.84,6.92-133.63c2.35-32.59,24.38-53.71,56.81-56.63,28.8-2.61,55.87,1.61,78.37,21.88,14.12,12.73,22.45,28.15,20.87,47.57-1.45,17.91-2.38,36-5.79,53.57-9.95,51.25-6.77,102,2.5,152.9,34.18,188,182.35,354.64,344.27,418,111.4,43.62,224.58,45.92,337.49,3.06,41.16-15.62,75.85-41.27,108.48-70.13,5-4.42,10-8.79,15.14-13C7890.46,3125.08,7892,3125.06,7894.77,3124.29Z" transform="translate(-4963.21 -4)" fill="#fff"/>
    <path id="Path_8" data-name="Path 8" d="M9118.54,3121.91c9.1,7.68,16.33,13.29,23,19.5,64.15,59.53,140.55,89.55,227.29,95.81,147.45,10.69,273.43-37.22,381-137.22,75.66-70.33,132.26-152.68,163.5-251.8,23.22-73.76,29.45-148.51,16.61-224.88a241.169,241.169,0,0,1-3.139-37.75c-.341-40.71,27.639-70.64,68.309-73.37a230.875,230.875,0,0,1,30,0c30.67,1.9,51.08,22,55.34,52.7,12.69,91.79,9.63,183.26-2.39,274.9-7.88,60.16-14.65,120.51-32.65,178.64-54.17,175-136.69,335.12-253.73,476.71-147.2,178-325,318.16-528.72,426.24-64.23,34.07-131.33,61.63-198.28,89.66-16,6.69-29.4,4.51-42.78-5.81-66.13-51.08-137.5-93.83-211.94-131.53-23.73-12-40-30.21-49.18-55.27-11.26-30.62-23.33-61-35.81-93.35,10.07-10.06,20.64-20.92,31.5-31.43,108.59-105,200-223,271-356.57,33.51-63.07,61.31-128.58,84.39-196.13C9113.53,3135.86,9115.37,3130.87,9118.54,3121.91Z" transform="translate(-4963.21 -4)" fill="#fff"/>
    <path id="Path_9" data-name="Path 9" d="M8308.94,3671.12c-5.92-5.81-10.32-9.52-14-13.83-134.59-156.56-228.25-334.07-268.64-537.25-14.63-73.67-23.73-148.68-22.45-224.28a152.431,152.431,0,0,1,3.88-31.66c4.939-21.18,17.919-35.38,39.58-40.45s42-.4,56.92,15.47c6.88,7.35,9.77,20.3,10.63,31,1.61,20.52,1.36,41.32.31,61.93-3,59,12.21,113.33,39.09,165.15,46,88.67,111.91,156.73,204.18,197.43,127,56.07,281.28,33.79,386.5-57,62.65-54,110.38-118.85,136.49-198.36,15.7-47.77,16.89-96.75,13.49-146.27-.74-10.55-.88-21.46,1-31.78,3.51-19.53,16-31.75,35.29-36.54,42.37-10.54,74.55,14.43,75.26,58,4.22,259.48-76.85,490.9-230,698.51-17.8,24.13-36.9,47.26-55.53,70.78-3.2,4.06-7,7.63-12.13,13.1-6.15-18.85-11.2-35.94-17.32-52.61-9.84-26.85-19.87-53.66-30.76-80.08-17.57-42.72-50.31-65.14-95.75-71.6-43.4-6.18-86.2-5.42-129.09,3.65-34.53,7.29-59.67,25.71-72.42,59.05-16.62,43.48-32.69,87.19-48.93,130.82C8312.71,3659.07,8311.27,3664,8308.94,3671.12Z" transform="translate(-4963.21 -4)" fill="#fff"/>
    <path id="Path_10" data-name="Path 10" d="M7586.05,2632.08c94.31.94,174.33,36.63,238,107,84.5,93.4,80.27,240.77-8.05,330.6-57.26,58.23-127.48,88.87-208,94.91-128.32,9.61-231.5-35.6-299.88-147.23-59.24-96.72-39.48-218.58,44-295.46C7418,2661.11,7496.42,2633.47,7586.05,2632.08Z" transform="translate(-4963.21 -4)" fill="#fff"/>
    <path id="Path_11" data-name="Path 11" d="M9408.84,2632.93c120.87.09,204.1,35.83,271.11,110.24,68.65,76.23,77,184.48,26.87,271.31C9658,3099,9584.39,3148.27,9488,3162.16c-108.51,15.65-204.49-12.08-285.59-87.08-93.8-86.74-106.95-256.14,9.22-359.09C9274.31,2660.31,9346.34,2631.51,9408.84,2632.93Z" transform="translate(-4963.21 -4)" fill="#fff"/>
    <path id="Path_12" data-name="Path 12" d="M8504.53,2823.87c76.28-.56,142.5,24.27,196.41,79,77.93,79.08,80.48,197.52,6,279.72-39.41,43.48-88.76,69.53-146.33,80-90.79,16.46-172.35-3.41-241.48-65.29-42.27-37.84-67.72-85.66-70.13-143.37-1.53-36.65,6.75-71.8,25.77-103.33,48-79.59,119.31-121.06,211.8-126.65C8492.51,2823.56,8498.52,2823.87,8504.53,2823.87Z" transform="translate(-4963.21 -4)" fill="#fff"/>
    <path id="Path_13" data-name="Path 13" d="M8661.26,2236c-3.51-5.95-5.73-11.85-9.75-16-4.91-5-10.77-9.95-17.18-12.5-9.41-3.71-14.2-.57-14.6,9.58-1.39,34.92-17.74,63.64-36.76,91.28-19.34,28.09-42.81,52.47-69.45,77.1-55-47.74-107.24-96.21-119.31-173.06-23.7-2.58-29.06,15.34-36.26,31.1-13.15-7-20.66-18.2-27.21-29.62-24.75-43.2-24.63-87.34-3.54-131.9,3.54-7.51,8.22-13,17.49-14.34,37.47-5.36,74.83-11.31,112.28-17a297.36,297.36,0,0,1,93.4.28q54.12,9,108.42,17.15c10.63,1.59,18.57,5.61,24.21,15.14,25,42.24,19.56,107.52-12.53,144.62C8667.92,2230.72,8664.69,2233,8661.26,2236Z" transform="translate(-4963.21 -4)" fill="#fff"/>
    <path id="Path_14" data-name="Path 14" d="M6819.62,6790.76c-18-22.25-34.41-42.6-50.88-63l-4.23,1.59V6836.9h-44.64V6654.16c1.84-1,2.92-2,4.05-2.12,35-2.24,34.95-2.22,56.5,24.77q17.43,21.85,35,43.63c.8,1,2,1.64,5.27,4.16,5.56-6.77,11.26-13.69,16.87-20.63,10.43-13,21.49-25.54,31-39.15,7.31-10.43,15.87-15.14,28.54-13.64,7.15.86,14.46.15,23.08.15v185.61h-44.31V6729.59l-4.14-1.7C6855.14,6748,6838.44,6768.14,6819.62,6790.76Z" transform="translate(-4963.21 -4)" fill="#fff"/>
    <path id="Path_15" data-name="Path 15" d="M9998.76,6727.66l-51.62,63.19c-17.63-21.66-34.16-42-53.63-65.91-2.75,21.21-1.31,38.58-1.56,55.82-.26,17.91-.06,35.85-.06,54.59-15.22,4.51-29.45,3-45.15,1.33V6651.35c10.09,0,19.33.49,28.49-.14s14.82,3.09,20.18,10c16.27,21.06,33.11,41.69,51.48,64.68,7.42-9.12,14-17.2,20.52-25.28,7.11-8.82,15.5-16.92,21-26.67,13.55-24.1,33.85-26.57,58.82-20.41V6837h-44.27V6729.34Z" transform="translate(-4963.21 -4)" fill="#fff"/>
    <path id="Path_16" data-name="Path 16" d="M9313.11,6650.5c37.17,1.11,73.34-.87,108.6,4,47.65,6.55,77.07,48.67,74,98.42-2.77,45.19-39.14,81.67-86,83.94-31.72,1.53-63.55.28-96.55.28Zm47.12,149.76c14.25,0,26.19.65,38-.14,27.86-1.87,47.48-22.34,49.29-50.55,2-30.95-15.05-55.41-43.51-59.49-14.06-2-28.66-.34-43.79-.34Z" transform="translate(-4963.21 -4)" fill="#fff"/>
    <path id="Path_17" data-name="Path 17" d="M8229.23,6836.88H8176c-8.25-18.31-16-36.65-24.72-54.57-8.11-16.69-14.26-19.55-37.82-18.82v73.42h-46.23c-2-61-.31-121.83-1-184.88,36.14-.11,70.52-4.05,104.6,3.12,20.58,4.34,34.38,16.56,38.07,38.5s-2.41,39.43-21.6,51.62c-2.22,1.41-4.2,3.2-6.3,4.81C8205.51,6773.87,8212.25,6806.55,8229.23,6836.88ZM8114.48,6684.8v42.69c10,0,18.71.91,27.16-.2,13.47-1.78,19.22-8.93,19.16-21.26-.08-12.13-6.37-19.58-19.44-21C8132.85,6684,8124.18,6684.8,8114.48,6684.8Z" transform="translate(-4963.21 -4)" fill="#fff"/>
    <path id="Path_18" data-name="Path 18" d="M9144.37,6651.38c24.29,62.42,47.88,123,72.2,185.5h-49.21c-4.23-10.63-8.59-21.63-13.44-33.79h-80.08c-5.1,11.14-10.29,22.45-15.5,33.82h-48.11c2.61-7.2,4.28-12.78,6.61-18.11,22-50.69,44.56-101.14,66-152.05,4.87-11.57,11-16.67,23.61-15.59C9118.29,6652.18,9130.31,6651.38,9144.37,6651.38Zm-3,117c-8.25-22.28-15.85-42.78-23.47-63.3-1.42,0-2.86,0-4.28.06-8.45,20.58-18,40.76-24.86,63.24Z" transform="translate(-4963.21 -4)" fill="#fff"/>
    <path id="Path_19" data-name="Path 19" d="M7153,6652.49c24,61.65,47.34,121.69,71.58,184h-48.81c-4.4-10.29-9.25-21.74-14.74-34.67-23.73,0-47.66-.4-71.52.4-3.91.14-9,4.93-11.2,8.87-4.56,8-7.6,16.89-11.54,26.08h-49.12c26.05-63.05,53.55-123.2,79.82-184.65Zm-57.2,115.88h53.83c-8.28-22.31-15.87-42.83-23.47-63.36-1.45-.05-2.86-.14-4.31-.19-8.39,20.38-16.75,40.79-26.08,63.55Z" transform="translate(-4963.21 -4)" fill="#fff"/>
    <path id="Path_20" data-name="Path 20" d="M8596,6652.77c23.75,61.09,47.31,121.58,71.6,184.06h-49c-3.17-7.86-7.06-16.16-9.86-24.84-2.44-7.51-6.78-10.48-14.63-10.37-22.56.31-45.13.11-68.8.11-5.35,11.94-10.43,23.27-15.84,35.38h-48.56c25.14-62.82,53.21-122.51,79.23-184.31C8558.14,6652.77,8575.8,6652.77,8596,6652.77Zm-5,115.74c-10.07-37.08-17-53.49-26.76-63.33-8.34,20.95-16.5,41.45-25.17,63.33Z" transform="translate(-4963.21 -4)" fill="#fff"/>
    <path id="Path_21" data-name="Path 21" d="M7447.58,6661.28v38.77c-9-3.43-16.9-6.35-24.69-9.38-15.17-5.87-30.9-9.13-46.89-5.87-5.64,1.17-13.46,6.13-14.6,10.77-1.07,4.37,4.14,12.11,8.68,15.62,6.12,4.74,14.26,6.86,21.54,10.07,12.79,5.61,26.05,10.29,38.24,16.95,20.3,11.11,27.44,29.59,26.11,52.1-1.25,20.83-12.08,35.26-30.67,42.94-34.08,14.09-67.72,10.46-100.21-5.69-3.46-1.73-7.08-6.64-7.45-10.41-1-10.32-.34-20.78-.34-33.93,9.21,4.48,15.56,7.51,21.85,10.66,14.49,7.26,29.51,12.05,46,11,14.34-.88,22.31-5.53,23.16-14.37,1.13-12-7.83-15.57-16.58-19.39-17-7.43-34.33-14.35-50.8-22.88-14.17-7.34-23.36-19.47-25.88-35.86-3.86-25,6.09-44.19,28.91-55.76,19.31-9.77,40-10.2,60.49-7C7418.69,6651.89,7432.47,6657.11,7447.58,6661.28Z" transform="translate(-4963.21 -4)" fill="#fff"/>
    <path id="Path_22" data-name="Path 22" d="M8919.38,6662.89v41.78c-7.54-3.31-13.52-5.86-19.44-8.56-17.46-7.91-35.78-10-54.63-7.76-30.16,3.62-48.84,26.64-47.82,58.5,1,31.35,19.76,52.08,49.61,54.71,19.08,1.7,37-2.24,54.14-10.57,6-2.89,11.76-6,19.62-10.09v42.29c-30.19,17.83-63.24,22.82-97.54,15.39-47-10.15-76.45-49.89-74.38-97.51,2.12-48.81,34.61-84.95,83.79-91.67C8862.21,6645.37,8891.15,6648.18,8919.38,6662.89Z" transform="translate(-4963.21 -4)" fill="#fff"/>
    <path id="Path_23" data-name="Path 23" d="M7950.27,6652.6v32.12h-76.73v39.17h72.74v34h-72.51v44.84H7951v35.18c-40.76.37-81.64.51-122.17-.17-4.31-15.9-5.08-163.1-1.08-185.1C7867.81,6652.6,7908.09,6652.6,7950.27,6652.6Z" transform="translate(-4963.21 -4)" fill="#fff"/>
    <path id="Path_24" data-name="Path 24" d="M9607.41,6652.4h122.4v31.86c-23.81,2.87-49-.34-75.46,1.9v37.39h72.2v34.19c-23.84.62-47.91,1.27-72.85,1.93v43.11h77.75v33.9H9607.38C9607.41,6775.51,9607.41,6715.16,9607.41,6652.4Z" transform="translate(-4963.21 -4)" fill="#fff"/>
    <path id="Path_25" data-name="Path 25" d="M10338.5,6651.38c-23.64,32.49-43.65,60.61-64.4,88.13-7.18,9.5-10.8,19-10.32,31.07.82,21.74.22,43.51.22,66.19h-47c0-21.15-.8-41,.25-60.75.82-15.45-3.17-28.09-12.73-40.39-17.12-22.06-32.85-45.16-49.06-67.86-2.92-4.11-5.45-8.51-10.29-16.1,19,0,34.64-.68,50.17.45,4.08.28,8.64,5.53,11.51,9.52,11.17,15.54,21.74,31.47,34,49.38,10.89-15.5,21.43-28.29,29.43-42.49s18.65-19,34.13-17.35C10314.1,6652.2,10323.9,6651.38,10338.5,6651.38Z" transform="translate(-4963.21 -4)" fill="#fff"/>
    <path id="Path_26" data-name="Path 26" d="M7611.76,6685.68h-60.63v-31.09c15.13-4.23,151.14-4.68,171.44-.29.22,4.14.65,8.65.65,13.16,0,5.18-.43,10.37-.77,17.46h-58.87c-4.88,18-2,34.64-2.53,51-.51,16.61-.11,33.28-.11,49.89v50.89h-49.15C7611.76,6786.79,7611.76,6737.3,7611.76,6685.68Z" transform="translate(-4963.21 -4)" fill="#fff"/>
    <path id="Path_29" data-name="Path 29" d="M8519.07,1277c-75.26,0-130.9-21.6-176.59-67.35-70.56-70.62-69.94-183.18,2.12-252.63,33.25-32.06,72.23-56.86,118.55-61.85,84.27-9,162,6.58,222.18,73.22,63.75,70.64,57.82,179.66-13.38,246.5C8625.83,1258.24,8570.75,1277.6,8519.07,1277Z" transform="translate(-4963.21 -4)" fill="#fff"/>
  </g>
</svg>
